<svg id="Слой_1" data-name="Слой 1" xmlns="http://www.w3.org/2000/svg" viewBox="0 0 979.99 266.45"><path d="M369.73,155.19l16.36,28.26a5.4,5.4,0,1,0,9.35-5.42L378.51,148.8a78.79,78.79,0,0,1,15.25-7.57,5.4,5.4,0,0,0-3.7-10.15,88.56,88.56,0,0,0-17,8.36l-13.67-23.61c-2.46-4.25-3.93-9.13-4.69-15.62l-.21-2a5.59,5.59,0,0,0-.59-1.92A109.08,109.08,0,0,0,388.86,83a5.4,5.4,0,1,0-5.53-9.28,100.3,100.3,0,0,1-48.77,13.83c1.18-4.39,2.39-8.76,3.7-13.1a5.4,5.4,0,1,0-10.34-3.13c-1.59,5.27-3.05,10.58-4.45,15.93a99.67,99.67,0,0,1-40.73-12.37,5.4,5.4,0,1,0-5.31,9.41A108.15,108.15,0,0,0,303.84,94.9V119a2.32,2.32,0,1,0,4.63,0V96a110.34,110.34,0,0,0,12.39,1.91q-4.33,18.55-7.07,37.53a44.93,44.93,0,0,1-9-3.43,47.18,47.18,0,0,1-24.71-34.16,5.4,5.4,0,0,0-10.66-.09,358.78,358.78,0,0,0-5,47.94,383.09,383.09,0,0,1-41.09-.24,132.27,132.27,0,0,0,36.77-17.23,5.4,5.4,0,0,0-4-9.76,275.56,275.56,0,0,1-78.23,3.09,338.67,338.67,0,0,0-29.52-39.39,5.4,5.4,0,1,0-8.15,7.09,328.67,328.67,0,0,1,23.5,30.46q-9.21-1.43-18.27-3.47a5.4,5.4,0,0,0-4.71,9.37l17.62,15.1a5.4,5.4,0,0,0,7-8.21l-2.24-1.92c2.78.42,5.57.79,8.36,1.13,2.31,3.71,4.56,7.44,6.71,11.23-12.92,1.29-25.62,1.81-37.38,2.3L15.32,150.35a5.4,5.4,0,0,0,.22,10.8h.13c15.32-.36,30.77-1,45.93-1.62v45.7a2.32,2.32,0,1,0,4.63,0v-45.9l6.63-.28L84,158.57v15.67a2.32,2.32,0,0,0,4.63,0V158.37c34.74-1.45,67.82-2.49,97.41-.66a330.74,330.74,0,0,1,24,62.78,5.41,5.41,0,0,0,5.22,4,5.24,5.24,0,0,0,1.4-.19,5.41,5.41,0,0,0,3.82-6.62,341,341,0,0,0-22-59,248.65,248.65,0,0,1,37.3,6.12V283.09a2.32,2.32,0,1,0,4.63,0V166a131.89,131.89,0,0,1,24.06,9.19,359.17,359.17,0,0,0,4.2,40.78,5.41,5.41,0,0,0,5.33,4.55,6.51,6.51,0,0,0,.87-.07,5.41,5.41,0,0,0,4.47-6.2q-2.61-16.15-3.68-32.42a80.93,80.93,0,0,1,18.14,16.94v39.07a2.32,2.32,0,1,0,4.63,0V205.41c7.38,11.73,12.2,26.16,14,43.88a5.41,5.41,0,0,0,5.37,4.86,5.07,5.07,0,0,0,.55,0,5.4,5.4,0,0,0,4.83-5.92c-.35-3.42-.82-6.69-1.36-9.89a5.77,5.77,0,0,0,0-.93,427,427,0,0,1,1-88q4.78-.94,9.53-2A57.08,57.08,0,0,0,343.85,145a217.47,217.47,0,0,1-7.47,38.34,72.16,72.16,0,0,0-2.59,8.42c0,.1,0,.2,0,.3a5.35,5.35,0,0,0-.07.56,2.9,2.9,0,0,0,0,.51,4.89,4.89,0,0,0,0,.54c0,.18.06.34.09.51a6.59,6.59,0,0,0,.32,1l.23.46.27.43a4.63,4.63,0,0,0,.32.42c.11.13.23.26.35.38a4.4,4.4,0,0,0,.39.35l.43.31c.15.09.29.18.45.26a4.52,4.52,0,0,0,.5.23l.29.13.28.07a.85.85,0,0,1,.17.06h.14a5.36,5.36,0,0,0,1.12.14h.06a4.43,4.43,0,0,0,.81-.07c.11,0,.22,0,.33-.07a4.84,4.84,0,0,0,.51-.14l.34-.14.45-.19.32-.2.41-.26.28-.24.36-.33.26-.29c.1-.13.2-.25.29-.38s.15-.23.22-.34.15-.28.22-.43.12-.25.17-.38a2.18,2.18,0,0,0,.09-.23c.89-2.66,1.73-5.35,2.52-8C351.19,174.82,359.35,163.83,369.73,155.19Zm-37.9-56.77H332a114.67,114.67,0,0,0,11.87-.63,5.41,5.41,0,0,0-.09,1.51c.06.71.13,1.41.21,2.09a216.28,216.28,0,0,1,.77,31.7c-.34.15-.69.28-1,.42-4.38,1.16-8.78,2.25-13.2,3.24a46.84,46.84,0,0,1-6,.2C326.34,124,328.8,111.11,331.83,98.42ZM277.1,120.29a57.74,57.74,0,0,0,22.74,21.3c.41.21.83.39,1.24.59Q288.21,144,275.23,145,275.73,132.63,277.1,120.29ZM184.84,133a288.92,288.92,0,0,0,41.4.11,188.91,188.91,0,0,1-36.52,8.45Q187.33,137.22,184.84,133Zm62.42,23.94q8.46,0,16.9-.41c0,2.23,0,4.45,0,6.68A147.09,147.09,0,0,0,247.26,156.92Zm62.06,45.21c-8.37-14.43-20-25.32-34.22-33.46q-.18-6.4-.13-12.8,18.51-1.35,36.82-4.41A440.26,440.26,0,0,0,309.32,202.13Zm44-46.14a231.46,231.46,0,0,0,2.31-25.07l8.58,14.82A97,97,0,0,0,353.36,156Z" transform="translate(-10.14 -18.96)"/><path d="M990.09,147.53a5.41,5.41,0,0,0-6-4.72A981.47,981.47,0,0,1,745.46,142a202.08,202.08,0,0,1,1.69-30.9,5.4,5.4,0,0,0-10.71-1.43,212.82,212.82,0,0,0-1.82,30.9c-6.72-.93-13.43-1.89-20.14-3a5.41,5.41,0,0,0-1.69,10.68q11.13,1.75,22.28,3.26a215.88,215.88,0,0,0,3.14,25.08,25.52,25.52,0,0,0-11.16-10.77,24.12,24.12,0,0,0-19.69-.12A18.81,18.81,0,0,0,696.6,177.5,5.4,5.4,0,0,0,707,180.56a8.38,8.38,0,0,1,4.79-5,13.19,13.19,0,0,1,10.63,0c7.08,3.39,10.66,13,7.52,20.2-2.09,4.77-6.77,8.71-12.83,10.81-5.12,1.78-11.28,2.37-19.36,1.86-11.25-.71-18.9-3.73-22.74-9-3.45-4.73-4.31-11.81-2.56-21.06A77.44,77.44,0,0,1,699,133.71V156.9a2.32,2.32,0,0,0,4.63,0V130.19c1.62-1.14,3.27-2.24,5-3.25A5.41,5.41,0,0,0,704.7,117a8.33,8.33,0,0,1-1.1.16V104.27c1-.77,2.09-1.52,3.15-2.27a13.64,13.64,0,0,1,4.16-2.29l.26,0a24,24,0,0,1-1.29,3.12c-1.65,3.54-4.15,8.89-.52,13.93a5.4,5.4,0,0,0,9-6,20.8,20.8,0,0,1,1.34-3.35c1.59-3.4,4-8.56.94-13.56-2.3-3.77-7.06-5.65-11.87-4.67a21.9,21.9,0,0,0-8.18,4c-3.58,2.5-7.64,5.34-10.55,9.62-3.77,5.55-4.38,12.19-1.6,17.33a14.09,14.09,0,0,0,4.27,4.78,88.45,88.45,0,0,0-30.89,51.55c-.07.37-.13.74-.19,1.11a443.61,443.61,0,0,1-6.39-96.41,5.41,5.41,0,1,0-10.8-.48,451.09,451.09,0,0,0,2.26,68.49,4.41,4.41,0,0,0,0,.81c.95,8.1.17,14.69-2.15,18.07a15.7,15.7,0,0,1-12.47,6.64h-.13c-5.09,0-10.68-2.69-15.37-7.37-5.08-5.09-8-10.33-8.84-16a2.7,2.7,0,0,0-.09-.36,471.08,471.08,0,0,1-1-125.87,5.4,5.4,0,1,0-10.72-1.36,480.63,480.63,0,0,0-3.32,82.61,41.9,41.9,0,0,0-26.17-9c-13.39.15-26.87,6.49-37,17.38-8.49,9.12-14.59,21.1-18.14,35.61a71.17,71.17,0,0,0-1.65,26.91q-5.53-.24-11.09,0a254,254,0,0,1,.45-57.15l2.93,6.86a5.41,5.41,0,0,0,9.94-4.25l-10.3-24.13a5.41,5.41,0,0,0-10.28,1.09,265.51,265.51,0,0,0-3.49,78.52A125,125,0,0,0,467,182.74a252.12,252.12,0,0,0-6.54-56.26,55,55,0,0,0,15.84,6.16,5.4,5.4,0,1,0,2.3-10.56,44.5,44.5,0,0,1-23.59-13.79,5.4,5.4,0,0,0-9.21,5.15,245.88,245.88,0,0,1,10.38,70.9,909.06,909.06,0,0,0-59.58-91.63,5.41,5.41,0,0,0-9.27,5.45c8.49,18.72,16.13,37.11,16.55,56.23.37,17-6.85,38-23.8,46.52a5.4,5.4,0,1,0,4.86,9.65c9.29-4.68,16.85-12.54,22-22.34v60.52a2.32,2.32,0,1,0,4.63,0V176.91a72.47,72.47,0,0,0,3.08-22.76,99.24,99.24,0,0,0-2.83-21c12.57,18.76,24.44,38,35.54,57.66a117.71,117.71,0,0,0-13.52,8.15,5.4,5.4,0,0,0,6.19,8.86c.69-.48,1.38-.95,2.08-1.41v28.69a2.32,2.32,0,0,0,4.63,0v-31.6c1.93-1.14,3.89-2.23,5.88-3.25,1.13,2.06,2.26,4.11,3.38,6.17a5.4,5.4,0,0,0,10.14-2.12q.41-5.06.61-10.09a113,113,0,0,1,22.33-5.29c.49,3.38,1,6.76,1.65,10.14,1.39,7.51,5.33,12.16,11.71,13.84a19,19,0,0,0,4.74.59,21.36,21.36,0,0,0,13.57-4.79,18,18,0,0,0,3.57-4.2,45.15,45.15,0,0,0,24.05,8.83c1.4.11,2.79.16,4.19.16,19.28,0,37.52-10.62,45.33-26.83a39.29,39.29,0,0,0,3.16-9.54A480,480,0,0,0,626.44,263a5.38,5.38,0,0,0,5,3.4,5.47,5.47,0,0,0,2-.38,5.41,5.41,0,0,0,3-7,469.9,469.9,0,0,1-24.16-81.05c6.05,4.87,12.87,7.53,19.63,7.53h.23a25.79,25.79,0,0,0,9-1.75v35.37a2.32,2.32,0,1,0,4.63,0V181.4a26.36,26.36,0,0,0,4.81-3.86,451.86,451.86,0,0,0,19.79,75.54,5.39,5.39,0,0,0,5.08,3.58,5.25,5.25,0,0,0,1.82-.32,5.4,5.4,0,0,0,3.27-6.9c-4.84-13.51-9-27.33-12.5-41.35,5.32,5.84,13.29,9.37,24.21,10.71v54.69a2.32,2.32,0,0,0,4.63,0V219.24H697c1.77.11,3.78.2,6,.2h.28v15.63a2.32,2.32,0,0,0,4.63,0v-15.8a49.19,49.19,0,0,0,12.7-2.46c8.9-3.08,15.89-9.17,19.18-16.69a24.32,24.32,0,0,0,1.93-7.93q2.24,8.46,5.16,16.72A5.4,5.4,0,0,0,752,212.5a5.47,5.47,0,0,0,1.81-.31,5.4,5.4,0,0,0,3.28-6.9,201.66,201.66,0,0,1-10.8-49.3,289.82,289.82,0,0,1,77.4,35.88v78a2.32,2.32,0,0,0,4.63,0V195c1.44,1,2.87,2,4.29,3V212.2a2.32,2.32,0,0,0,4.63,0V201.35a285.32,285.32,0,0,1,23.2,19.14,5.4,5.4,0,1,0,7.31-8,300.46,300.46,0,0,0-87.41-55.94q43.79,3.89,87.77,3.89A991,991,0,0,0,972.37,155v25.09a2.32,2.32,0,0,0,4.63,0v-25.6c2.79-.31,5.57-.6,8.36-.93A5.42,5.42,0,0,0,990.09,147.53ZM699,108.84l0,0v7.26a3.33,3.33,0,0,1-1.06-1.13C697.1,113.45,697.53,110.94,699,108.84ZM513.76,200.49a10.69,10.69,0,0,1-8.51,1.93c-1.93-.51-3.11-1.51-3.82-5.35-.56-3-1.06-6.07-1.51-9.1a112.88,112.88,0,0,1,12.61.24,41.37,41.37,0,0,0,4,7.7A9.56,9.56,0,0,1,513.76,200.49Zm62.81-57.34c12.79,6.42,18.35,24.91,11.66,38.79-6.38,13.23-22.75,21.89-38.92,20.59-7.89-.64-14.88-3.38-19.69-7.73a25.78,25.78,0,0,1-4.19-4.86,107.52,107.52,0,0,1,18.1,5.16A5.4,5.4,0,1,0,547.4,185a118.84,118.84,0,0,0-26.64-6.78c-2.08-10.42,0-21.11,1-25.35,3.1-12.69,8.33-23.06,15.55-30.81a46.5,46.5,0,0,1,10.85-8.67v20.34a2.32,2.32,0,1,0,4.63,0V111.09a36.4,36.4,0,0,1,13.73-3h.34c11,0,21.3,5.9,25.81,14.77a5.36,5.36,0,0,0,1.07,1.41q1,11.85,2.56,23.64a35.93,35.93,0,0,0-14.92-14.47,5.4,5.4,0,0,0-4.85,9.66Z" transform="translate(-10.14 -18.96)"/><path d="M562.54,163.34c-1-.51-2-1.07-3-1.68-.34-.22-.67-.46-1-.69q1.68-1.69,3.35-3.4a2.31,2.31,0,0,0-3.27-3.27L555,158a34.42,34.42,0,0,1-2.83-3.09,2.31,2.31,0,0,0-3.27,0,2.37,2.37,0,0,0,0,3.27,31.09,31.09,0,0,0,2.84,3.13L550,163.05a2.32,2.32,0,0,0,3.28,3.28l2-2a34,34,0,0,0,5,3,2.32,2.32,0,0,0,2.34-4Z" transform="translate(-10.14 -18.96)"/><path d="M766.75,128.55a5.1,5.1,0,1,0-1.88-7A5.1,5.1,0,0,0,766.75,128.55Z" transform="translate(-10.14 -18.96)"/><path d="M782.41,132.92a6.19,6.19,0,1,0-2.29-8.46A6.2,6.2,0,0,0,782.41,132.92Z" transform="translate(-10.14 -18.96)"/></svg>